<svg xmlns="http://www.w3.org/2000/svg" width="240" height="68" viewBox="0 0 240 68">
    <g fill="none" fill-rule="nonzero">
        <path fill="#8DC63F" d="M0 23.912l23.912 23.87v-7.436L7.449 23.912l.005-.002z"/>
        <path fill="#FFF" d="M0 23.912l7.454-.002L23.912 7.481V.044z"/>
        <path fill="#8DC63F" d="M47.822 44.085l-23.91-23.868v7.437l16.462 16.43-.006.008z"/>
        <path fill="#FFF" d="M47.822 44.085l-7.454.007-16.456 16.425v7.44zM58.529 44.493l2.037-3.647h.62l-2.395 4.166v2.392h-.54v-2.413l-2.378-4.148h.627zM68.76 44.665a2.946 2.946 0 0 1-.697 2.052 2.357 2.357 0 0 1-1.871.784 2.308 2.308 0 0 1-1.846-.784 2.989 2.989 0 0 1-.686-2.052V43.6c-.034-.748.211-1.481.684-2.06a2.326 2.326 0 0 1 1.844-.784 2.375 2.375 0 0 1 1.874.784c.483.574.733 1.308.699 2.06v1.066zm-.536-1.089a2.593 2.593 0 0 0-.539-1.715 1.842 1.842 0 0 0-1.497-.646 1.779 1.779 0 0 0-1.464.646c-.368.493-.55 1.1-.521 1.715v1.077a2.643 2.643 0 0 0 .523 1.722c.359.435.901.678 1.466.648.573.03 1.127-.21 1.497-.644a2.625 2.625 0 0 0 .537-1.726l-.002-1.077zM76.63 40.843v4.36a2.177 2.177 0 0 1-.664 1.691 2.417 2.417 0 0 1-1.704.607 2.338 2.338 0 0 1-1.677-.61 2.18 2.18 0 0 1-.654-1.688v-4.36h.54v4.36c-.024.5.157.988.505 1.348.343.333.81.515 1.29.496.488.02.963-.158 1.318-.494.354-.355.54-.845.515-1.345v-4.365h.532zM80.588 44.443v2.961h-.542v-6.551h2.19c.704 0 1.244.153 1.62.462.39.336.598.836.565 1.348.004.336-.103.665-.302.936a1.704 1.704 0 0 1-.851.601c.35.066.666.26.879.547.188.293.285.636.274.982v.617c-.001.186.021.37.071.552.042.15.126.287.24.396v.109h-.55a.911.911 0 0 1-.24-.455 2.666 2.666 0 0 1-.07-.61v-.599a1.207 1.207 0 0 0-.39-.956 1.563 1.563 0 0 0-1.09-.348l-1.804.008zm0-.46h1.584c.593 0 1.027-.116 1.3-.357.272-.243.424-.593.41-.958a1.246 1.246 0 0 0-.403-1.005 1.85 1.85 0 0 0-1.242-.35h-1.65v2.67h.001zM95.751 45.812a1.041 1.041 0 0 0-.4-.831 4.075 4.075 0 0 0-1.363-.615 4.64 4.64 0 0 1-1.6-.717 1.409 1.409 0 0 1-.55-1.17 1.513 1.513 0 0 1 .612-1.238c.452-.331 1.005-.5 1.566-.476a2.338 2.338 0 0 1 1.613.546c.399.352.618.864.592 1.393v.028h-.515a1.388 1.388 0 0 0-.48-1.078 1.745 1.745 0 0 0-1.215-.43 1.839 1.839 0 0 0-1.197.363 1.11 1.11 0 0 0-.436.89c-.007.322.141.627.397.823.421.287.894.492 1.395.604.57.141 1.108.393 1.583.74.358.283.561.718.546 1.176.008.49-.23.955-.637 1.233-.472.329-1.04.494-1.613.479a2.939 2.939 0 0 1-1.69-.493 1.586 1.586 0 0 1-.701-1.434v-.03h.499c-.018.45.205.874.585 1.114.392.25.846.38 1.31.37.435.023.867-.1 1.228-.342.299-.206.477-.543.471-.905zM104.096 40.843v4.36a2.182 2.182 0 0 1-.663 1.691c-.47.415-1.08.633-1.706.607a2.338 2.338 0 0 1-1.676-.61 2.191 2.191 0 0 1-.655-1.688v-4.36h.54v4.36c-.025.5.16.988.507 1.348.341.333.808.515 1.288.496.487.02.963-.158 1.317-.494.354-.355.54-.845.515-1.345v-4.365h.533zM112.058 45.358v.028a1.927 1.927 0 0 1-.622 1.54 2.478 2.478 0 0 1-1.706.577 2.206 2.206 0 0 1-1.77-.793 3.05 3.05 0 0 1-.673-2.048v-1.069a3.055 3.055 0 0 1 .673-2.045 2.203 2.203 0 0 1 1.77-.797 2.5 2.5 0 0 1 1.713.564c.435.393.665.962.621 1.546v.026h-.516a1.58 1.58 0 0 0-.476-1.234 1.915 1.915 0 0 0-1.338-.445 1.685 1.685 0 0 0-1.387.665 2.698 2.698 0 0 0-.523 1.705v1.077a2.686 2.686 0 0 0 .521 1.717c.325.432.841.68 1.385.665.485.03.964-.126 1.338-.43.337-.328.513-.79.478-1.257l.512.008zM119.838 45.358v.028a1.919 1.919 0 0 1-.632 1.543 2.484 2.484 0 0 1-1.704.574 2.193 2.193 0 0 1-1.77-.79 3.05 3.05 0 0 1-.674-2.048V43.6a3.042 3.042 0 0 1 .674-2.048 2.196 2.196 0 0 1 1.77-.796 2.483 2.483 0 0 1 1.71.565c.44.393.669.962.626 1.548v.026h-.506a1.583 1.583 0 0 0-.478-1.236 1.922 1.922 0 0 0-1.339-.447 1.676 1.676 0 0 0-1.384.667 2.711 2.711 0 0 0-.524 1.709v1.078c-.027.614.158 1.22.524 1.715.324.435.84.683 1.384.667.486.032.964-.125 1.339-.432.336-.326.512-.79.478-1.257h.506zM126.578 44.228h-2.952v2.725h3.412v.451h-3.95v-6.561h3.926v.462h-3.388v2.463h2.952v.46zM133.74 45.812a1.035 1.035 0 0 0-.398-.831 4.115 4.115 0 0 0-1.364-.615 4.64 4.64 0 0 1-1.601-.717 1.412 1.412 0 0 1-.55-1.17 1.518 1.518 0 0 1 .614-1.238c.45-.331 1.003-.5 1.564-.476a2.34 2.34 0 0 1 1.615.546c.398.352.616.864.588 1.393v.028h-.504a1.39 1.39 0 0 0-.476-1.078 1.752 1.752 0 0 0-1.218-.43 1.836 1.836 0 0 0-1.196.363c-.276.212-.44.541-.435.89-.007.322.14.627.397.823.421.287.894.492 1.391.604.574.141 1.11.393 1.586.74.359.283.56.718.545 1.176.01.49-.23.955-.639 1.233a2.676 2.676 0 0 1-1.61.479 2.935 2.935 0 0 1-1.691-.493 1.595 1.595 0 0 1-.703-1.434v-.03h.501c-.026.456.192.89.573 1.136.392.249.846.378 1.31.37.436.018.866-.102 1.232-.344.304-.207.483-.558.47-.925zM141.17 45.812c.005-.324-.14-.631-.397-.831a4.099 4.099 0 0 0-1.364-.615 4.602 4.602 0 0 1-1.599-.717 1.41 1.41 0 0 1-.552-1.17 1.515 1.515 0 0 1 .614-1.238c.45-.331 1.003-.5 1.565-.476a2.338 2.338 0 0 1 1.612.546c.403.352.617.864.592 1.393v.028h-.507a1.386 1.386 0 0 0-.478-1.078 1.752 1.752 0 0 0-1.218-.43 1.839 1.839 0 0 0-1.196.363 1.114 1.114 0 0 0-.435.89c-.006.322.14.627.397.823.421.287.894.492 1.395.604.57.141 1.108.393 1.581.74.36.283.562.718.546 1.176.01.49-.23.955-.635 1.233-.472.329-1.04.494-1.615.479a2.95 2.95 0 0 1-1.69-.493 1.583 1.583 0 0 1-.701-1.434v-.03h.51c-.027.456.19.89.576 1.136.388.249.846.378 1.309.37a2.06 2.06 0 0 0 1.23-.344 1.07 1.07 0 0 0 .46-.925zM149.675 47.403h-.542v-6.56h.542zM157.053 45.812a1.033 1.033 0 0 0-.402-.831 4.097 4.097 0 0 0-1.36-.615 4.64 4.64 0 0 1-1.601-.717 1.42 1.42 0 0 1-.553-1.17 1.527 1.527 0 0 1 .618-1.238c.45-.331 1.004-.5 1.565-.476a2.336 2.336 0 0 1 1.612.546c.401.352.617.864.594 1.393v.028H157a1.388 1.388 0 0 0-.48-1.078 1.745 1.745 0 0 0-1.216-.43 1.839 1.839 0 0 0-1.196.363 1.109 1.109 0 0 0-.435.89c-.006.322.14.627.397.823.42.287.894.492 1.393.604.572.141 1.11.393 1.582.74.36.283.56.718.547 1.176.009.49-.23.955-.635 1.233-.474.329-1.04.494-1.617.479a2.94 2.94 0 0 1-1.688-.493 1.588 1.588 0 0 1-.703-1.434v-.03h.5c-.027.456.19.89.572 1.136a2.37 2.37 0 0 0 1.31.37 2.06 2.06 0 0 0 1.23-.344c.313-.203.5-.553.492-.925zM169.694 44.665a2.946 2.946 0 0 1-.698 2.052 2.35 2.35 0 0 1-1.871.784 2.304 2.304 0 0 1-1.844-.784 2.99 2.99 0 0 1-.688-2.052V43.6c-.032-.748.211-1.481.686-2.06a2.32 2.32 0 0 1 1.842-.784 2.377 2.377 0 0 1 1.874.784c.483.574.732 1.308.699 2.06v1.066zm-.534-1.089a2.593 2.593 0 0 0-.538-1.715 1.844 1.844 0 0 0-1.497-.646 1.774 1.774 0 0 0-1.465.646c-.364.493-.549 1.1-.52 1.715v1.077c-.029.62.156 1.228.527 1.722.358.435.9.678 1.468.648a1.85 1.85 0 0 0 1.497-.644 2.645 2.645 0 0 0 .537-1.726l-.009-1.077zM177.565 40.843v4.36a2.188 2.188 0 0 1-.663 1.691 2.42 2.42 0 0 1-1.705.607 2.34 2.34 0 0 1-1.677-.61 2.191 2.191 0 0 1-.654-1.688v-4.36h.542v4.36c-.03.5.157.988.504 1.348.342.333.81.515 1.286.496a1.82 1.82 0 0 0 1.321-.494c.352-.355.54-.845.515-1.345v-4.365h.531zM181.528 44.443v2.961h-.54v-6.551h2.189c.701 0 1.245.153 1.62.462.391.336.599.834.566 1.348.005.336-.104.665-.302.936a1.7 1.7 0 0 1-.85.601c.35.066.665.26.88.547.187.294.28.639.267.987v.615c-.002.187.024.373.072.554a.84.84 0 0 0 .242.396v.104h-.55a.898.898 0 0 1-.24-.455 2.668 2.668 0 0 1-.072-.61v-.599a1.207 1.207 0 0 0-.39-.956 1.562 1.562 0 0 0-1.091-.348l-1.8.008zm0-.46h1.578c.596 0 1.031-.116 1.302-.357.275-.243.425-.593.413-.958a1.248 1.248 0 0 0-.408-1 1.89 1.89 0 0 0-1.241-.35h-1.644v2.665zM196.14 46.625h.03l2.446-5.779h.66v6.557h-.542V41.9h-.028l-2.358 5.502h-.39l-2.41-5.654h-.027v5.654h-.54v-6.56h.716zM203.487 47.403h-.542v-6.56h.542zM210.863 45.812a1.033 1.033 0 0 0-.402-.831 4.066 4.066 0 0 0-1.36-.615 4.64 4.64 0 0 1-1.601-.717 1.413 1.413 0 0 1-.55-1.17 1.526 1.526 0 0 1 .61-1.238c.454-.331 1.007-.5 1.568-.476a2.34 2.34 0 0 1 1.614.546c.398.352.617.864.591 1.393v.028h-.506a1.39 1.39 0 0 0-.476-1.078 1.752 1.752 0 0 0-1.218-.43 1.836 1.836 0 0 0-1.196.363c-.278.212-.44.541-.437.89-.007.322.141.627.397.823.423.287.896.492 1.393.604.572.141 1.11.393 1.585.74.358.283.562.718.546 1.176.01.49-.231.955-.637 1.233-.47.329-1.038.494-1.613.479a2.935 2.935 0 0 1-1.69-.493 1.595 1.595 0 0 1-.703-1.434v-.03h.5c-.027.456.19.89.574 1.136.39.249.846.378 1.31.37.436.018.866-.102 1.228-.344.304-.207.487-.558.473-.925zM218.293 45.812a1.035 1.035 0 0 0-.399-.831 4.068 4.068 0 0 0-1.364-.615 4.654 4.654 0 0 1-1.6-.717 1.417 1.417 0 0 1-.55-1.17 1.518 1.518 0 0 1 .613-1.238c.451-.331 1.004-.5 1.566-.476a2.338 2.338 0 0 1 1.613.546c.399.352.616.864.592 1.393v.028h-.514a1.388 1.388 0 0 0-.48-1.078 1.745 1.745 0 0 0-1.216-.43 1.833 1.833 0 0 0-1.196.363c-.277.212-.44.541-.435.89-.009.322.14.627.395.823.421.287.894.492 1.395.604a4.497 4.497 0 0 1 1.582.74c.36.283.56.718.547 1.176.009.49-.23.955-.637 1.233-.471.329-1.04.494-1.614.479-.601.012-1.192-.16-1.69-.493a1.594 1.594 0 0 1-.702-1.434v-.03h.5c-.025.456.193.89.574 1.136.39.249.846.378 1.31.37.436.018.866-.102 1.23-.344.306-.205.492-.555.48-.925zM222.7 47.403h-.548v-6.56h.542zM231.19 44.665a2.97 2.97 0 0 1-.697 2.052 2.36 2.36 0 0 1-1.871.784 2.311 2.311 0 0 1-1.848-.784 2.997 2.997 0 0 1-.685-2.052V43.6a3.026 3.026 0 0 1 .683-2.06 2.33 2.33 0 0 1 1.846-.784 2.366 2.366 0 0 1 1.87.784c.485.574.736 1.308.703 2.06v1.066zm-.536-1.089a2.595 2.595 0 0 0-.54-1.715 1.843 1.843 0 0 0-1.496-.646 1.778 1.778 0 0 0-1.466.646c-.37.493-.55 1.1-.521 1.715v1.077a2.644 2.644 0 0 0 .525 1.722c.357.435.9.678 1.466.648.571.03 1.127-.21 1.497-.644a2.635 2.635 0 0 0 .537-1.726l-.002-1.077zM239.285 47.403h-.542l-3.733-5.62h-.024v5.62h-.544v-6.56h.54l3.737 5.603h.026v-5.603h.542v6.56zM63.885 30.377a1.714 1.714 0 0 0-.577-1.336c-.387-.343-1.07-.653-2.051-.93-1.407-.388-2.492-.897-3.255-1.526a3.05 3.05 0 0 1-1.144-2.466 3.202 3.202 0 0 1 1.257-2.596c.837-.683 1.914-1.022 3.23-1.022 1.41 0 2.542.377 3.386 1.134a3.47 3.47 0 0 1 1.224 2.8l-.017.053h-2.1a2.082 2.082 0 0 0-.683-1.638 2.665 2.665 0 0 0-1.827-.61c-.736 0-1.302.174-1.7.52a1.699 1.699 0 0 0-.6 1.341c-.004.499.242.962.654 1.241.437.32 1.16.628 2.172.926 1.368.383 2.412.903 3.13 1.563a3.29 3.29 0 0 1 1.078 2.53 3.087 3.087 0 0 1-1.274 2.588c-.85.637-1.968.956-3.353.956a5.797 5.797 0 0 1-3.472-1.056c-.986-.704-1.466-1.696-1.439-2.982l.018-.055h2.1c0 .78.27 1.37.81 1.768a3.24 3.24 0 0 0 1.98.596c.771 0 1.369-.158 1.799-.477.424-.307.668-.801.654-1.322zM74.84 30.68h-4.627l-1.005 3.048h-2.251l4.55-13.04h2.076l4.5 13.04H75.83l-.99-3.048zm-4.03-1.816h3.435l-1.677-5.14h-.053l-1.705 5.14zM81.807 33.728H79.63v-13.04h2.179zM94.156 31.963a4.587 4.587 0 0 1-1.718 1.358c-.786.395-1.803.593-3.047.593-1.544 0-2.813-.498-3.81-1.493-.996-.994-1.495-2.278-1.495-3.854v-2.721c0-1.577.48-2.861 1.439-3.856.958-.994 2.198-1.49 3.72-1.49 1.522 0 2.706.382 3.556 1.147a3.731 3.731 0 0 1 1.238 2.99l-.037.05H91.94a2.36 2.36 0 0 0-.685-1.768c-.458-.448-1.114-.672-1.97-.672a2.693 2.693 0 0 0-2.186 1.006 3.926 3.926 0 0 0-.83 2.57v2.746a3.857 3.857 0 0 0 .866 2.594 2.815 2.815 0 0 0 2.257 1.015 4.65 4.65 0 0 0 1.66-.238c.348-.119.665-.317.924-.575v-2.698H89.24v-1.63h4.917v4.926zM106.828 28.378c0 1.594-.503 2.914-1.504 3.964-1.005 1.048-2.304 1.574-3.896 1.57-1.569 0-2.845-.526-3.833-1.575-.987-1.052-1.474-2.372-1.466-3.961V26.03c0-1.594.49-2.913 1.468-3.955.976-1.045 2.255-1.57 3.831-1.578 1.598 0 2.898.526 3.903 1.58a5.498 5.498 0 0 1 1.505 3.957l-.008 2.344zm-2.185-2.362a4.062 4.062 0 0 0-.868-2.678 2.918 2.918 0 0 0-2.347-1.043 2.75 2.75 0 0 0-2.275 1.048 4.196 4.196 0 0 0-.84 2.673v2.362c0 1.1.28 2 .835 2.699a2.741 2.741 0 0 0 2.28 1.055 2.909 2.909 0 0 0 2.364-1.048c.577-.7.867-1.603.864-2.708l-.013-2.36zM119.083 33.728h-2.179l-5.786-9.396-.053.018v9.378h-2.181v-13.04h2.18l5.788 9.396.052-.017v-9.378h2.18z"/>
        <path fill="#8DC63F" d="M135.013 22.433h-4.039V33.73h-2.18V22.433h-3.977v-1.746h10.194v1.746zM143.71 27.86h-5.114v4.132h6.027v1.736h-8.208v-13.04h8.146v1.747h-5.965v3.688h5.114zM155.877 29.469l.018.055c.026 1.313-.4 2.375-1.281 3.185-.881.81-2.066 1.213-3.562 1.212-1.522 0-2.751-.512-3.697-1.538-.945-1.025-1.418-2.333-1.418-3.926V25.97c0-1.594.468-2.903 1.4-3.926.935-1.023 2.152-1.54 3.654-1.547 1.537 0 2.747.392 3.63 1.176.882.782 1.312 1.855 1.286 3.214l-.018.056h-2.11c0-.873-.24-1.54-.721-2.001-.477-.464-1.17-.693-2.077-.693a2.478 2.478 0 0 0-2.105 1.051 4.359 4.359 0 0 0-.777 2.654v2.5c-.038.953.24 1.894.79 2.671a2.534 2.534 0 0 0 2.157 1.051c.89 0 1.568-.232 2.03-.698.465-.465.693-1.137.693-2.014l2.108.005zM167.94 33.728h-2.181v-5.562h-5.838v5.562h-2.18v-13.04h2.18v5.74h5.838v-5.74h2.18zM180.628 33.728h-2.18l-5.786-9.396-.054.018v9.378h-2.18v-13.04h2.18l5.788 9.396.052-.017v-9.378h2.18zM193.38 28.378c0 1.594-.503 2.914-1.506 3.964-1.001 1.048-2.302 1.574-3.902 1.57-1.563 0-2.834-.522-3.816-1.57-.979-1.046-1.471-2.368-1.471-3.964v-2.346c0-1.594.485-2.913 1.464-3.956.977-1.044 2.252-1.57 3.818-1.579 1.598 0 2.899.528 3.902 1.58a5.499 5.499 0 0 1 1.507 3.955l.004 2.346zm-2.185-2.362a4.034 4.034 0 0 0-.868-2.678 2.907 2.907 0 0 0-2.355-1.043 2.752 2.752 0 0 0-2.278 1.048 4.196 4.196 0 0 0-.827 2.679v2.363c0 1.1.278 1.999.833 2.7a2.746 2.746 0 0 0 2.272 1.052 2.909 2.909 0 0 0 2.362-1.046c.578-.7.865-1.603.865-2.708l-.004-2.367zM197.617 31.992h6.12v1.736h-8.301v-13.04h2.18zM215.366 28.378c0 1.594-.504 2.914-1.504 3.964-1.004 1.048-2.306 1.574-3.907 1.57-1.562 0-2.832-.522-3.814-1.57-.98-1.046-1.473-2.368-1.476-3.964v-2.346c0-1.594.49-2.913 1.47-3.956.973-1.044 2.247-1.57 3.817-1.579 1.595 0 2.895.528 3.902 1.58a5.497 5.497 0 0 1 1.505 3.955l.007 2.346zm-2.182-2.362a4.063 4.063 0 0 0-.87-2.678 2.903 2.903 0 0 0-2.357-1.043 2.75 2.75 0 0 0-2.276 1.048 4.209 4.209 0 0 0-.83 2.679v2.363c0 1.1.281 1.999.835 2.7a2.738 2.738 0 0 0 2.267 1.052 2.907 2.907 0 0 0 2.381-1.05c.577-.7.867-1.603.864-2.708l-.014-2.363zM227.102 31.963a4.565 4.565 0 0 1-1.72 1.358c-.783.395-1.799.595-3.044.595-1.545 0-2.81-.499-3.807-1.493-.996-.995-1.497-2.279-1.497-3.854v-2.725c0-1.577.482-2.861 1.439-3.856.956-.994 2.196-1.492 3.712-1.492 1.52 0 2.702.382 3.553 1.146a3.726 3.726 0 0 1 1.238 2.99l-.028.056h-2.071a2.357 2.357 0 0 0-.684-1.77c-.46-.449-1.116-.673-1.97-.673a2.69 2.69 0 0 0-2.176 1.007 3.918 3.918 0 0 0-.832 2.57v2.745a3.852 3.852 0 0 0 .867 2.593 2.821 2.821 0 0 0 2.258 1.015 4.699 4.699 0 0 0 1.661-.238c.345-.12.665-.317.922-.578v-2.693h-2.737v-1.63h4.918v4.927h-.002zM233.952 27.028l3.147-6.34h2.43l-4.531 8.483v4.558h-2.17v-4.695l-4.45-8.343h2.433z"/>
    </g>
</svg>
